<svg width="15" height="14" viewBox="0 0 15 14" fill="none" xmlns="http://www.w3.org/2000/svg">
<path d="M0.621338 14V10.1111H2.17689V12.4444H4.51023V14H0.621338ZM10.7324 14V12.4444H13.0658V10.1111H14.6213V14H10.7324ZM7.62134 12.4444C6.11763 12.4444 4.8343 11.913 3.77134 10.85C2.70838 9.78704 2.17689 8.5037 2.17689 7C2.17689 5.4963 2.70838 4.21296 3.77134 3.15C4.8343 2.08704 6.11763 1.55556 7.62134 1.55556C9.12504 1.55556 10.4084 2.08704 11.4713 3.15C12.5343 4.21296 13.0658 5.4963 13.0658 7C13.0658 8.5037 12.5343 9.78704 11.4713 10.85C10.4084 11.913 9.12504 12.4444 7.62134 12.4444ZM0.621338 3.88889V0H4.51023V1.55556H2.17689V3.88889H0.621338ZM13.0658 3.88889V1.55556H10.7324V0H14.6213V3.88889H13.0658Z" fill="black"/>
</svg>
