<svg width="17" height="20" viewBox="0 0 17 20" fill="none" xmlns="http://www.w3.org/2000/svg">
<path d="M17.0001 0.749966C17 0.633136 16.9726 0.51794 16.9202 0.413563C16.8677 0.309185 16.7915 0.218512 16.6978 0.148772C16.6041 0.0790316 16.4953 0.0321532 16.3803 0.0118737C16.2652 -0.00840588 16.147 -0.00152562 16.0351 0.0319657L6.0351 3.03197C5.88057 3.0782 5.74507 3.17303 5.6487 3.30237C5.55232 3.43171 5.50021 3.58867 5.5001 3.74997V13.627C4.85139 13.1753 4.0689 12.9565 3.28001 13.0063C2.49112 13.056 1.74231 13.3713 1.15546 13.9009C0.568617 14.4305 0.178308 15.1431 0.0480783 15.9227C-0.0821519 16.7024 0.0553657 17.5031 0.438243 18.1947C0.821121 18.8862 1.42681 19.4278 2.1567 19.7312C2.8866 20.0346 3.69771 20.0821 4.45799 19.8658C5.21827 19.6495 5.88295 19.1822 6.34381 18.54C6.80468 17.8978 7.03458 17.1185 6.9961 16.329L7.0001 16.25V8.30797L15.5001 5.75797V11.628C14.8514 11.1763 14.0689 10.9575 13.28 11.0073C12.4911 11.057 11.7423 11.3723 11.1555 11.9019C10.5686 12.4315 10.1783 13.1441 10.0481 13.9237C9.91785 14.7034 10.0554 15.5041 10.4382 16.1957C10.8211 16.8872 11.4268 17.4288 12.1567 17.7322C12.8866 18.0356 13.6977 18.0831 14.458 17.8668C15.2183 17.6505 15.883 17.1832 16.3438 16.541C16.8047 15.8988 17.0346 15.1195 16.9961 14.33L17.0001 14.25V0.749966Z" fill="black"/>
</svg>
