<svg width="21" height="22" viewBox="0 0 21 22" fill="none" xmlns="http://www.w3.org/2000/svg">
<path d="M12.395 0.902052C13.193 0.154052 14.5 0.720052 14.5 1.81405V20.1841C14.5 21.2781 13.194 21.8441 12.395 21.0961L7.458 16.4701C7.13382 16.1663 6.70625 15.9972 6.262 15.9971H3.25C2.38805 15.9971 1.5614 15.6546 0.951903 15.0451C0.34241 14.4357 0 13.609 0 12.7471V9.25505C0 8.3931 0.34241 7.56645 0.951903 6.95695C1.5614 6.34746 2.38805 6.00505 3.25 6.00505H6.261C6.706 6.00505 7.134 5.83505 7.458 5.53205L12.395 0.902052ZM18.353 5.30205C18.2939 5.22326 18.2199 5.15688 18.1351 5.1067C18.0504 5.05651 17.9566 5.02352 17.8591 5.00959C17.7616 4.99566 17.6623 5.00107 17.5669 5.02552C17.4715 5.04996 17.3818 5.09296 17.303 5.15205C17.2242 5.21115 17.1578 5.28518 17.1076 5.36993C17.0575 5.45468 17.0245 5.54848 17.0105 5.64599C16.9966 5.74349 17.002 5.84278 17.0265 5.93819C17.0509 6.0336 17.0939 6.12326 17.153 6.20205C18.1927 7.58529 18.7533 9.26965 18.75 11.0001C18.75 12.8001 18.156 14.4601 17.153 15.7971C17.0939 15.8758 17.0509 15.9655 17.0265 16.0609C17.002 16.1563 16.9966 16.2556 17.0105 16.3531C17.0245 16.4506 17.0575 16.5444 17.1076 16.6292C17.1578 16.7139 17.2242 16.788 17.303 16.8471C17.3818 16.9061 17.4715 16.9491 17.5669 16.9736C17.6623 16.998 17.7616 17.0034 17.8591 16.9895C17.9566 16.9756 18.0504 16.9426 18.1351 16.8924C18.2199 16.8422 18.2939 16.7758 18.353 16.6971C19.5872 15.0544 20.2531 13.0547 20.25 11.0001C20.2531 8.94544 19.5872 6.94566 18.353 5.30305" fill="#FAA64B"/>
</svg>
