<svg width="24" height="22" viewBox="0 0 24 22" fill="none" xmlns="http://www.w3.org/2000/svg">
<path d="M12.395 0.902052C13.193 0.154052 14.5 0.720052 14.5 1.81405V20.1841C14.5 21.2781 13.194 21.8441 12.395 21.0961L7.458 16.4701C7.13382 16.1663 6.70625 15.9972 6.262 15.9971H3.25C2.38805 15.9971 1.5614 15.6546 0.951903 15.0451C0.34241 14.4357 0 13.609 0 12.7471V9.25505C0 8.3931 0.34241 7.56645 0.951903 6.95695C1.5614 6.34746 2.38805 6.00505 3.25 6.00505H6.261C6.706 6.00505 7.134 5.83505 7.458 5.53205L12.395 0.902052ZM19.644 2.18405C19.7934 2.05286 19.9887 1.98632 20.1871 1.99907C20.3855 2.01182 20.5707 2.10281 20.702 2.25205C22.8317 4.66806 24.0047 7.77936 24 11.0001C24 14.3521 22.754 17.4141 20.702 19.7471C20.638 19.8244 20.5591 19.8881 20.4701 19.9344C20.381 19.9807 20.2835 20.0087 20.1835 20.0166C20.0834 20.0245 19.9828 20.0123 19.8875 19.9806C19.7922 19.949 19.7043 19.8985 19.6289 19.8322C19.5535 19.7659 19.4922 19.6852 19.4486 19.5948C19.405 19.5043 19.38 19.4061 19.3751 19.3058C19.3701 19.2056 19.3854 19.1053 19.4199 19.0111C19.4544 18.9168 19.5075 18.8304 19.576 18.7571C21.4647 16.6149 22.5047 13.8559 22.5 11.0001C22.5047 8.14418 21.4647 5.3852 19.576 3.24305C19.5109 3.16907 19.461 3.08299 19.4292 2.98971C19.3973 2.89644 19.3842 2.79781 19.3905 2.69946C19.3968 2.60111 19.4225 2.50497 19.466 2.41653C19.5095 2.32809 19.57 2.24909 19.644 2.18405ZM18.353 5.30305C18.2939 5.22426 18.2199 5.15788 18.1351 5.1077C18.0504 5.05752 17.9566 5.02452 17.8591 5.01059C17.7616 4.99666 17.6623 5.00207 17.5669 5.02652C17.4715 5.05096 17.3818 5.09396 17.303 5.15305C17.2242 5.21215 17.1578 5.28618 17.1076 5.37093C17.0575 5.45568 17.0245 5.54948 17.0105 5.64699C16.9966 5.74449 17.002 5.84378 17.0265 5.93919C17.0509 6.0346 17.0939 6.12426 17.153 6.20305C18.1925 7.58601 18.7531 9.26999 18.75 11.0001C18.75 12.8001 18.156 14.4601 17.153 15.7971C17.0939 15.8758 17.0509 15.9655 17.0265 16.0609C17.002 16.1563 16.9966 16.2556 17.0105 16.3531C17.0245 16.4506 17.0575 16.5444 17.1076 16.6292C17.1578 16.7139 17.2242 16.788 17.303 16.8471C17.3818 16.9061 17.4715 16.9491 17.5669 16.9736C17.6623 16.998 17.7616 17.0034 17.8591 16.9895C17.9566 16.9756 18.0504 16.9426 18.1351 16.8924C18.2199 16.8422 18.2939 16.7758 18.353 16.6971C19.5872 15.0544 20.2531 13.0547 20.25 11.0001C20.2531 8.94544 19.5872 6.94566 18.353 5.30305Z" fill="#FAA64B"/>
</svg>
