<svg width="24" height="22" viewBox="0 0 24 22" fill="none" xmlns="http://www.w3.org/2000/svg">
<path d="M14.5 1.81405C14.5 0.720052 13.193 0.154052 12.395 0.902052L7.458 5.53205C7.13357 5.83605 6.7056 6.00516 6.261 6.00505H3.25C2.38805 6.00505 1.5614 6.34746 0.951903 6.95695C0.34241 7.56645 0 8.3931 0 9.25505V12.7471C0 13.609 0.34241 14.4357 0.951903 15.0451C1.5614 15.6546 2.38805 15.9971 3.25 15.9971H6.262C6.706 15.9971 7.134 16.1671 7.458 16.4701L12.395 21.0961C13.194 21.8441 14.5 21.2781 14.5 20.1841V1.81405ZM17.782 7.72105C17.641 7.58389 17.4518 7.50761 17.2551 7.50864C17.0584 7.50967 16.87 7.58793 16.7304 7.72655C16.5909 7.86518 16.5114 8.05307 16.5091 8.24976C16.5067 8.44644 16.5818 8.63616 16.718 8.77805L18.936 11.0131L16.721 13.2181C16.584 13.3592 16.5079 13.5485 16.5092 13.7451C16.5104 13.9418 16.5888 14.1301 16.7276 14.2695C16.8663 14.4089 17.0543 14.4882 17.2509 14.4904C17.4476 14.4926 17.6372 14.4174 17.779 14.2811L19.997 12.0731L22.222 14.2821C22.2909 14.3555 22.374 14.4142 22.4661 14.4548C22.5583 14.4955 22.6577 14.5171 22.7583 14.5185C22.859 14.5199 22.959 14.501 23.0522 14.4629C23.1454 14.4248 23.2301 14.3684 23.301 14.2969C23.3719 14.2254 23.4278 14.1404 23.4651 14.0469C23.5025 13.9534 23.5206 13.8533 23.5185 13.7526C23.5164 13.6519 23.494 13.5527 23.4526 13.4609C23.4113 13.369 23.3519 13.2864 23.278 13.2181L21.058 11.0131L23.282 8.77905C23.4224 8.63809 23.5011 8.44711 23.5007 8.24814C23.5004 8.04916 23.421 7.85848 23.28 7.71805C23.139 7.57762 22.9481 7.49894 22.7491 7.49931C22.5501 7.49969 22.3594 7.57909 22.219 7.72005L19.997 9.95205L17.782 7.72105Z" fill="#FAA64B"/>
</svg>
