<svg width="14" height="14" viewBox="0 0 14 14" fill="none" xmlns="http://www.w3.org/2000/svg">
<path d="M12.4319 6.92211L10.6873 5.54536C10.6728 5.53387 10.6552 5.52674 10.6368 5.52476C10.6183 5.52278 10.5996 5.52605 10.5829 5.53418C10.5662 5.54232 10.5522 5.55499 10.5424 5.57075C10.5325 5.58651 10.5273 5.60471 10.5274 5.62328V6.50785H7.49223V3.4727H8.37817C8.4602 3.4727 8.50668 3.377 8.4561 3.31274L7.07797 1.56821C7.06885 1.5564 7.05715 1.54684 7.04376 1.54027C7.03036 1.53369 7.01564 1.53027 7.00073 1.53027C6.98581 1.53027 6.97109 1.53369 6.9577 1.54027C6.94431 1.54684 6.9326 1.5564 6.92348 1.56821L5.54536 3.31274C5.53387 3.32733 5.52674 3.34487 5.52476 3.36333C5.52278 3.3818 5.52605 3.40045 5.53418 3.41714C5.54232 3.43384 5.55499 3.4479 5.57075 3.45773C5.58651 3.46756 5.60471 3.47274 5.62328 3.4727H6.50786V6.50785H3.4727V5.62192C3.4727 5.53989 3.377 5.4934 3.31274 5.54399L1.56821 6.92211C1.5564 6.93123 1.54684 6.94294 1.54027 6.95633C1.53369 6.96972 1.53027 6.98444 1.53027 6.99936C1.53027 7.01428 1.53369 7.029 1.54027 7.04239C1.54684 7.05578 1.5564 7.06748 1.56821 7.0766L3.31137 8.45473C3.37563 8.50532 3.47133 8.4602 3.47133 8.3768V7.49223H6.50649V10.5274H5.62055C5.53852 10.5274 5.49203 10.6231 5.54262 10.6873L6.92075 12.4305C6.96039 12.4811 7.03696 12.4811 7.07524 12.4305L8.45336 10.6873C8.50395 10.6231 8.45883 10.5274 8.37543 10.5274H7.49223V7.49223H10.5274V8.37817C10.5274 8.4602 10.6231 8.50668 10.6873 8.4561L12.4305 7.07797C12.4423 7.06872 12.4518 7.05695 12.4584 7.04352C12.465 7.03008 12.4685 7.01534 12.4686 7.00037C12.4688 6.9854 12.4655 6.9706 12.4592 6.95705C12.4528 6.94351 12.4435 6.93156 12.4319 6.92211Z" fill="black"/>
</svg>
