<svg width="14" height="14" viewBox="0 0 14 14" fill="none" xmlns="http://www.w3.org/2000/svg">
<g clip-path="url(#clip0_472_59)">
<path d="M4.19371 3.25739C4.10815 3.17183 3.99211 3.12376 3.87112 3.12376C3.75012 3.12376 3.63408 3.17183 3.54852 3.25739C3.46297 3.34294 3.4149 3.45898 3.4149 3.57998C3.4149 3.70097 3.46297 3.81701 3.54852 3.90257L6.45186 6.80591L3.54852 9.70925C3.46297 9.7948 3.4149 9.91084 3.4149 10.0318C3.4149 10.1528 3.46297 10.2689 3.54852 10.3544C3.63408 10.44 3.75012 10.4881 3.87112 10.4881C3.99211 10.4881 4.10815 10.44 4.19371 10.3544L7.09705 7.45109L10.0004 10.3544C10.0859 10.44 10.202 10.4881 10.323 10.4881C10.444 10.4881 10.56 10.44 10.6456 10.3544C10.7311 10.2689 10.7792 10.1528 10.7792 10.0318C10.7792 9.91084 10.7311 9.7948 10.6456 9.70925L7.74223 6.80591L10.6456 3.90257C10.7311 3.81701 10.7792 3.70097 10.7792 3.57998C10.7792 3.45898 10.7311 3.34294 10.6456 3.25739C10.56 3.17183 10.444 3.12376 10.323 3.12376C10.202 3.12376 10.0859 3.17183 10.0004 3.25739L7.09705 6.16072L4.19371 3.25739Z" fill="black"/>
</g>
<defs>
<clipPath id="clip0_472_59">
<rect width="14" height="14" fill="white"/>
</clipPath>
</defs>
</svg>
