<svg width="24" height="24" viewBox="0 0 24 24" fill="none" xmlns="http://www.w3.org/2000/svg">
<path d="M7 0.5C7.26522 0.5 7.51957 0.605357 7.70711 0.792893C7.89464 0.98043 8 1.23478 8 1.5V5C8 5.79565 7.68393 6.55871 7.12132 7.12132C6.55871 7.68393 5.79565 8 5 8H1.5C1.23478 8 0.98043 7.89464 0.792893 7.70711C0.605357 7.51957 0.5 7.26522 0.5 7C0.5 6.73478 0.605357 6.48043 0.792893 6.29289C0.98043 6.10536 1.23478 6 1.5 6H5C5.26522 6 5.51957 5.89464 5.70711 5.70711C5.89464 5.51957 6 5.26522 6 5V1.5C6 1.23478 6.10536 0.98043 6.29289 0.792893C6.48043 0.605357 6.73478 0.5 7 0.5ZM17 0.5C17.2652 0.5 17.5196 0.605357 17.7071 0.792893C17.8946 0.98043 18 1.23478 18 1.5V5C18 5.26522 18.1054 5.51957 18.2929 5.70711C18.4804 5.89464 18.7348 6 19 6H22.5C22.7652 6 23.0196 6.10536 23.2071 6.29289C23.3946 6.48043 23.5 6.73478 23.5 7C23.5 7.26522 23.3946 7.51957 23.2071 7.70711C23.0196 7.89464 22.7652 8 22.5 8H19C18.2044 8 17.4413 7.68393 16.8787 7.12132C16.3161 6.55871 16 5.79565 16 5V1.5C16 1.23478 16.1054 0.98043 16.2929 0.792893C16.4804 0.605357 16.7348 0.5 17 0.5ZM0.5 17C0.5 16.7348 0.605357 16.4804 0.792893 16.2929C0.98043 16.1054 1.23478 16 1.5 16H5C5.79565 16 6.55871 16.3161 7.12132 16.8787C7.68393 17.4413 8 18.2044 8 19V22.5C8 22.7652 7.89464 23.0196 7.70711 23.2071C7.51957 23.3946 7.26522 23.5 7 23.5C6.73478 23.5 6.48043 23.3946 6.29289 23.2071C6.10536 23.0196 6 22.7652 6 22.5V19C6 18.7348 5.89464 18.4804 5.70711 18.2929C5.51957 18.1054 5.26522 18 5 18H1.5C1.23478 18 0.98043 17.8946 0.792893 17.7071C0.605357 17.5196 0.5 17.2652 0.5 17ZM16 19C16 18.2044 16.3161 17.4413 16.8787 16.8787C17.4413 16.3161 18.2044 16 19 16H22.5C22.7652 16 23.0196 16.1054 23.2071 16.2929C23.3946 16.4804 23.5 16.7348 23.5 17C23.5 17.2652 23.3946 17.5196 23.2071 17.7071C23.0196 17.8946 22.7652 18 22.5 18H19C18.7348 18 18.4804 18.1054 18.2929 18.2929C18.1054 18.4804 18 18.7348 18 19V22.5C18 22.7652 17.8946 23.0196 17.7071 23.2071C17.5196 23.3946 17.2652 23.5 17 23.5C16.7348 23.5 16.4804 23.3946 16.2929 23.2071C16.1054 23.0196 16 22.7652 16 22.5V19Z" fill="black"/>
</svg>
