<svg width="28" height="28" viewBox="0 0 28 28" fill="none" xmlns="http://www.w3.org/2000/svg">
<path d="M13.668 2.97004C13.639 2.85448 13.6379 2.73368 13.6649 2.61764C13.6919 2.50159 13.7462 2.39365 13.8232 2.30276C13.9002 2.21186 13.9978 2.14061 14.1078 2.09493C14.2179 2.04924 14.3372 2.03043 14.456 2.04004C20.627 2.53604 25.4799 7.70004 25.4799 14C25.4799 20.628 20.1069 26 13.4799 26C11.3783 26.0007 9.31339 25.4495 7.49175 24.4014C5.67011 23.3533 4.15566 21.8453 3.09995 20.028C3.04123 19.9272 3.00684 19.8141 2.99952 19.6976C2.9922 19.5812 3.01215 19.4646 3.05779 19.3573C3.10342 19.2499 3.17348 19.1546 3.26239 19.0791C3.3513 19.0035 3.45661 18.9498 3.56995 18.922C5.16895 18.529 7.11995 17.898 8.88995 16.918C10.663 15.935 12.2 14.631 13.059 12.915C14.772 9.48804 14.319 5.57004 13.667 2.97004" fill="white"/>
</svg>
