<svg width="24" height="24" viewBox="0 0 24 24" fill="none" xmlns="http://www.w3.org/2000/svg">
<path d="M3 4.75296C3 3.34496 4.578 2.51296 5.74 3.30896L16.238 10.503C16.4716 10.6631 16.6629 10.8776 16.7954 11.1279C16.9279 11.3783 16.9976 11.6571 16.9986 11.9403C16.9996 12.2236 16.9318 12.5028 16.801 12.7541C16.6703 13.0054 16.4805 13.2212 16.248 13.383L5.749 20.685C4.59 21.492 3 20.66 3 19.248V4.75296ZM21 3.74996C21 3.55105 20.921 3.36028 20.7803 3.21963C20.6397 3.07898 20.4489 2.99996 20.25 2.99996C20.0511 2.99996 19.8603 3.07898 19.7197 3.21963C19.579 3.36028 19.5 3.55105 19.5 3.74996V20.25C19.5 20.4489 19.579 20.6396 19.7197 20.7803C19.8603 20.9209 20.0511 21 20.25 21C20.4489 21 20.6397 20.9209 20.7803 20.7803C20.921 20.6396 21 20.4489 21 20.25V3.74996Z" fill="white"/>
</svg>
