<svg width="28" height="28" viewBox="0 0 28 28" fill="none" xmlns="http://www.w3.org/2000/svg">
<path d="M6.75 3C6.02065 3 5.32118 3.28973 4.80546 3.80546C4.28973 4.32118 4 5.02065 4 5.75V22.25C4 22.9793 4.28973 23.6788 4.80546 24.1945C5.32118 24.7103 6.02065 25 6.75 25H9.75C10.1111 25 10.4687 24.9289 10.8024 24.7907C11.136 24.6525 11.4392 24.4499 11.6945 24.1945C11.9499 23.9392 12.1525 23.636 12.2907 23.3024C12.4289 22.9687 12.5 22.6111 12.5 22.25V5.75C12.5 5.38886 12.4289 5.03127 12.2907 4.69762C12.1525 4.36398 11.9499 4.06082 11.6945 3.80546C11.4392 3.5501 11.136 3.34753 10.8024 3.20933C10.4687 3.07113 10.1111 3 9.75 3H6.75ZM18.25 3C17.5207 3 16.8212 3.28973 16.3055 3.80546C15.7897 4.32118 15.5 5.02065 15.5 5.75V22.25C15.5 22.9793 15.7897 23.6788 16.3055 24.1945C16.8212 24.7103 17.5207 25 18.25 25H21.25C21.9793 25 22.6788 24.7103 23.1945 24.1945C23.7103 23.6788 24 22.9793 24 22.25V5.75C24 5.02065 23.7103 4.32118 23.1945 3.80546C22.6788 3.28973 21.9793 3 21.25 3H18.25Z" fill="white"/>
</svg>
