<svg width="14" height="14" viewBox="0 0 14 14" fill="none" xmlns="http://www.w3.org/2000/svg">
<path d="M6.17578 6.12501C6.17578 6.12501 5.85431 6.125 5.73828 6.125C5.62225 6.125 5.30078 6.125 5.30078 6.125H1.36328C1.24725 6.125 1.13597 6.17109 1.05392 6.25314C0.971875 6.33519 0.925781 6.44647 0.925781 6.5625C0.925781 6.67853 0.971875 6.78981 1.05392 6.87186C1.13597 6.95391 1.24725 7 1.36328 7H5.30078C5.21873 6.91795 5.30078 7.11603 5.30078 7C5.18475 7 5.38283 7.08205 5.30078 7C5.21873 7.08205 5.41681 7 5.30078 7H10.1133C10.2293 7 10.3406 6.95391 10.4226 6.87186C10.5047 6.78981 10.5508 6.67853 10.5508 6.5625C10.5508 6.44647 10.5047 6.33519 10.4226 6.25314C10.3406 6.17109 10.2293 6.125 10.1133 6.125L6.17578 6.12501Z" fill="black"/>
</svg>
