<svg width="28" height="28" viewBox="0 0 28 28" fill="none" xmlns="http://www.w3.org/2000/svg">
<path d="M14 2C14.1989 2 14.3897 2.07902 14.5303 2.21967C14.671 2.36032 14.75 2.55109 14.75 2.75V4.246C14.75 4.44491 14.671 4.63568 14.5303 4.77633C14.3897 4.91698 14.1989 4.996 14 4.996C13.8011 4.996 13.6103 4.91698 13.4696 4.77633C13.329 4.63568 13.25 4.44491 13.25 4.246V2.75C13.25 2.55109 13.329 2.36032 13.4696 2.21967C13.6103 2.07902 13.8011 2 14 2ZM20 14C20 14.7879 19.8448 15.5681 19.5433 16.2961C19.2417 17.0241 18.7998 17.6855 18.2426 18.2426C17.6855 18.7998 17.024 19.2417 16.2961 19.5433C15.5681 19.8448 14.7879 20 14 20C13.212 20 12.4318 19.8448 11.7039 19.5433C10.9759 19.2417 10.3145 18.7998 9.75734 18.2426C9.20018 17.6855 8.75823 17.0241 8.4567 16.2961C8.15517 15.5681 7.99998 14.7879 7.99998 14C7.99998 12.4087 8.63212 10.8826 9.75734 9.75736C10.8826 8.63214 12.4087 8 14 8C15.5913 8 17.1174 8.63214 18.2426 9.75736C19.3678 10.8826 20 12.4087 20 14ZM25.25 14.75C25.4489 14.75 25.6397 14.671 25.7803 14.5303C25.921 14.3897 26 14.1989 26 14C26 13.8011 25.921 13.6103 25.7803 13.4697C25.6397 13.329 25.4489 13.25 25.25 13.25H23.754C23.5551 13.25 23.3643 13.329 23.2236 13.4697C23.083 13.6103 23.004 13.8011 23.004 14C23.004 14.1989 23.083 14.3897 23.2236 14.5303C23.3643 14.671 23.5551 14.75 23.754 14.75H25.25ZM14 23.004C14.1989 23.004 14.3897 23.083 14.5303 23.2237C14.671 23.3643 14.75 23.5551 14.75 23.754V25.25C14.75 25.4489 14.671 25.6397 14.5303 25.7803C14.3897 25.921 14.1989 26 14 26C13.8011 26 13.6103 25.921 13.4696 25.7803C13.329 25.6397 13.25 25.4489 13.25 25.25V23.754C13.25 23.5551 13.329 23.3643 13.4696 23.2237C13.6103 23.083 13.8011 23.004 14 23.004ZM4.24998 14.75C4.44889 14.75 4.63965 14.671 4.78031 14.5303C4.92096 14.3897 4.99998 14.1989 4.99998 14C4.99998 13.8011 4.92096 13.6103 4.78031 13.4697C4.63965 13.329 4.44889 13.25 4.24998 13.25H2.75098C2.55206 13.25 2.3613 13.329 2.22065 13.4697C2.07999 13.6103 2.00098 13.8011 2.00098 14C2.00098 14.1989 2.07999 14.3897 2.22065 14.5303C2.3613 14.671 2.55206 14.75 2.75098 14.75H4.24998ZM5.21998 5.219C5.3606 5.07855 5.55123 4.99966 5.74998 4.99966C5.94873 4.99966 6.13935 5.07855 6.27998 5.219L7.77998 6.719C7.91246 6.86117 7.98458 7.04922 7.98115 7.24352C7.97772 7.43782 7.89901 7.62321 7.7616 7.76062C7.62419 7.89804 7.4388 7.97675 7.2445 7.98018C7.0502 7.9836 6.86215 7.91148 6.71998 7.779L5.21998 6.279C5.07953 6.13837 5.00064 5.94775 5.00064 5.749C5.00064 5.55025 5.07953 5.35963 5.21998 5.219ZM6.27998 22.779C6.1378 22.9115 5.94976 22.9836 5.75545 22.9802C5.56115 22.9767 5.37577 22.898 5.23835 22.7606C5.10094 22.6232 5.02223 22.4378 5.0188 22.2435C5.01537 22.0492 5.0875 21.8612 5.21998 21.719L6.71998 20.219C6.86215 20.0865 7.0502 20.0144 7.2445 20.0178C7.4388 20.0213 7.62419 20.1 7.7616 20.2374C7.89901 20.3748 7.97772 20.5602 7.98115 20.7545C7.98458 20.9488 7.91246 21.1368 7.77998 21.279L6.27998 22.779ZM22.78 5.219C22.6394 5.07855 22.4487 4.99966 22.25 4.99966C22.0512 4.99966 21.8606 5.07855 21.72 5.219L20.22 6.719C20.1463 6.78766 20.0872 6.87046 20.0462 6.96246C20.0052 7.05446 19.9832 7.15377 19.9814 7.25448C19.9796 7.35518 19.9981 7.45521 20.0359 7.5486C20.0736 7.64199 20.1297 7.72682 20.2009 7.79804C20.2722 7.86926 20.357 7.9254 20.4504 7.96312C20.5438 8.00084 20.6438 8.01937 20.7445 8.01759C20.8452 8.01581 20.9445 7.99377 21.0365 7.95278C21.1285 7.91179 21.2113 7.85269 21.28 7.779L22.78 6.279C22.9204 6.13837 22.9993 5.94775 22.9993 5.749C22.9993 5.55025 22.9204 5.35963 22.78 5.219ZM21.72 22.78C21.8622 22.9125 22.0502 22.9846 22.2445 22.9812C22.4388 22.9777 22.6242 22.899 22.7616 22.7616C22.899 22.6242 22.9777 22.4388 22.9812 22.2445C22.9846 22.0502 22.9125 21.8622 22.78 21.72L21.28 20.22C21.1378 20.0875 20.9498 20.0154 20.7555 20.0188C20.5612 20.0223 20.3758 20.101 20.2384 20.2384C20.1009 20.3758 20.0222 20.5612 20.0188 20.7555C20.0154 20.9498 20.0875 21.1378 20.22 21.28L21.72 22.78Z" fill="white"/>
</svg>
