<svg width="28" height="28" viewBox="0 0 28 28" fill="none" xmlns="http://www.w3.org/2000/svg">
<path d="M14.395 3.90205C15.193 3.15405 16.5 3.72005 16.5 4.81405V23.1841C16.5 24.2781 15.194 24.8441 14.395 24.0961L9.458 19.4701C9.13382 19.1663 8.70625 18.9972 8.262 18.9971H5.25C4.38805 18.9971 3.5614 18.6546 2.9519 18.0451C2.34241 17.4357 2 16.609 2 15.7471V12.2551C2 11.3931 2.34241 10.5664 2.9519 9.95695C3.5614 9.34746 4.38805 9.00505 5.25 9.00505H8.261C8.706 9.00505 9.134 8.83505 9.458 8.53205L14.395 3.90205ZM21.644 5.18405C21.7934 5.05286 21.9887 4.98632 22.1871 4.99907C22.3855 5.01182 22.5707 5.10281 22.702 5.25205C24.8317 7.66806 26.0047 10.7794 26 14.0001C26 17.3521 24.754 20.4141 22.702 22.7471C22.638 22.8244 22.5591 22.8881 22.4701 22.9344C22.381 22.9807 22.2835 23.0087 22.1835 23.0166C22.0834 23.0245 21.9828 23.0123 21.8875 22.9806C21.7922 22.949 21.7043 22.8985 21.6289 22.8322C21.5535 22.7659 21.4922 22.6852 21.4486 22.5948C21.405 22.5043 21.38 22.4061 21.3751 22.3058C21.3701 22.2056 21.3854 22.1053 21.4199 22.0111C21.4544 21.9168 21.5075 21.8304 21.576 21.7571C23.4647 19.6149 24.5047 16.8559 24.5 14.0001C24.5047 11.1442 23.4647 8.3852 21.576 6.24305C21.5109 6.16907 21.461 6.08299 21.4292 5.98971C21.3973 5.89644 21.3842 5.79781 21.3905 5.69946C21.3968 5.60111 21.4225 5.50497 21.466 5.41653C21.5095 5.32809 21.57 5.24909 21.644 5.18405ZM20.353 8.30305C20.2939 8.22426 20.2199 8.15788 20.1351 8.1077C20.0504 8.05752 19.9566 8.02452 19.8591 8.01059C19.7616 7.99666 19.6623 8.00207 19.5669 8.02652C19.4715 8.05096 19.3818 8.09396 19.303 8.15305C19.2242 8.21215 19.1578 8.28618 19.1076 8.37093C19.0575 8.45568 19.0245 8.54948 19.0105 8.64699C18.9966 8.74449 19.002 8.84378 19.0265 8.93919C19.0509 9.0346 19.0939 9.12426 19.153 9.20305C20.1925 10.586 20.7531 12.27 20.75 14.0001C20.75 15.8001 20.156 17.4601 19.153 18.7971C19.0939 18.8758 19.0509 18.9655 19.0265 19.0609C19.002 19.1563 18.9966 19.2556 19.0105 19.3531C19.0245 19.4506 19.0575 19.5444 19.1076 19.6292C19.1578 19.7139 19.2242 19.788 19.303 19.8471C19.3818 19.9061 19.4715 19.9491 19.5669 19.9736C19.6623 19.998 19.7616 20.0034 19.8591 19.9895C19.9566 19.9756 20.0504 19.9426 20.1351 19.8924C20.2199 19.8422 20.2939 19.7758 20.353 19.6971C21.5872 18.0544 22.2531 16.0547 22.25 14.0001C22.2531 11.9454 21.5872 9.94566 20.353 8.30305Z" fill="white"/>
</svg>
