<svg width="20" height="20" viewBox="0 0 20 20" fill="none" xmlns="http://www.w3.org/2000/svg">
<path d="M10.0149 4.01807C12.4799 4.01807 13.8779 5.59107 14.0809 7.49207H14.1429C15.7289 7.49207 17.0149 8.72907 17.0149 10.2551C17.0149 11.7811 15.7289 13.0181 14.1429 13.0181L13.4269 13.0171L13.4169 13.0421L11.9339 15.7461C11.8743 15.8559 11.7757 15.9394 11.6576 15.9802C11.5394 16.021 11.4103 16.016 11.2957 15.9664C11.181 15.9167 11.0891 15.8259 11.038 15.7118C10.987 15.5977 10.9805 15.4687 11.0199 15.3501L11.0559 15.2671L12.2909 13.0171H10.4379L10.4279 13.0421L8.94489 15.7461C8.88528 15.8559 8.78671 15.9394 8.66858 15.9802C8.55045 16.021 8.42133 16.016 8.30666 15.9664C8.19199 15.9167 8.10008 15.8259 8.04904 15.7118C7.998 15.5977 7.99152 15.4687 8.03089 15.3501L8.06689 15.2671L9.30189 13.0171H7.43189L5.94489 15.7461C5.88878 15.8488 5.79839 15.9286 5.68947 15.9716C5.58056 16.0145 5.46003 16.0179 5.34889 15.9811L5.26689 15.9451C5.16418 15.8891 5.08432 15.799 5.0412 15.6903C4.99808 15.5816 4.99444 15.4612 5.03089 15.3501L5.06689 15.2671L6.29189 13.0171H5.88689C4.30089 13.0171 3.01489 11.7811 3.01489 10.2551C3.01489 8.78507 4.20689 7.58407 5.71189 7.49707L5.94889 7.49207C6.15389 5.57907 7.55089 4.01807 10.0149 4.01807Z" fill="white"/>
</svg>
