<svg width="28" height="28" viewBox="0 0 28 28" fill="none" xmlns="http://www.w3.org/2000/svg">
<path d="M14.395 3.90205C15.193 3.15405 16.5 3.72005 16.5 4.81405V23.1841C16.5 24.2781 15.194 24.8441 14.395 24.0961L9.458 19.4701C9.13382 19.1663 8.70625 18.9972 8.262 18.9971H5.25C4.38805 18.9971 3.5614 18.6546 2.9519 18.0451C2.34241 17.4357 2 16.609 2 15.7471V12.2551C2 11.3931 2.34241 10.5664 2.9519 9.95695C3.5614 9.34746 4.38805 9.00505 5.25 9.00505H8.261C8.706 9.00505 9.134 8.83505 9.458 8.53205L14.395 3.90205ZM20.353 8.30205C20.2939 8.22326 20.2199 8.15688 20.1351 8.1067C20.0504 8.05651 19.9566 8.02352 19.8591 8.00959C19.7616 7.99566 19.6623 8.00107 19.5669 8.02552C19.4715 8.04996 19.3818 8.09296 19.303 8.15205C19.2242 8.21115 19.1578 8.28518 19.1076 8.36993C19.0575 8.45468 19.0245 8.54848 19.0105 8.64599C18.9966 8.74349 19.002 8.84278 19.0265 8.93819C19.0509 9.0336 19.0939 9.12326 19.153 9.20205C20.1927 10.5853 20.7533 12.2696 20.75 14.0001C20.75 15.8001 20.156 17.4601 19.153 18.7971C19.0939 18.8758 19.0509 18.9655 19.0265 19.0609C19.002 19.1563 18.9966 19.2556 19.0105 19.3531C19.0245 19.4506 19.0575 19.5444 19.1076 19.6292C19.1578 19.7139 19.2242 19.788 19.303 19.8471C19.3818 19.9061 19.4715 19.9491 19.5669 19.9736C19.6623 19.998 19.7616 20.0034 19.8591 19.9895C19.9566 19.9756 20.0504 19.9426 20.1351 19.8924C20.2199 19.8422 20.2939 19.7758 20.353 19.6971C21.5872 18.0544 22.2531 16.0547 22.25 14.0001C22.2531 11.9454 21.5872 9.94566 20.353 8.30305" fill="white"/>
</svg>
