<svg width="16" height="16" viewBox="0 0 16 16" fill="none" xmlns="http://www.w3.org/2000/svg">
<path d="M4.03009 5.50712C4.14942 4.53825 4.61893 3.64647 5.35017 2.99977C6.08141 2.35307 7.0239 1.99609 8.00009 1.99609C8.97627 1.99609 9.91876 2.35307 10.65 2.99977C11.3812 3.64647 11.8508 4.53825 11.9701 5.50712C12.8124 5.56246 13.6001 5.94333 14.1665 6.56913C14.733 7.19493 15.0337 8.01657 15.0051 8.86018C14.9766 9.70379 14.6209 10.5032 14.0134 11.0892C13.4059 11.6752 12.5942 12.0019 11.7501 12.0001H4.25009C3.40599 12.0019 2.59431 11.6752 1.9868 11.0892C1.37929 10.5032 1.02361 9.70379 0.99503 8.86018C0.966446 8.01657 1.2672 7.19493 1.83365 6.56913C2.4001 5.94333 3.18781 5.56246 4.03009 5.50712Z" fill="white"/>
</svg>
