<svg width="28" height="28" viewBox="0 0 28 28" fill="none" xmlns="http://www.w3.org/2000/svg">
<path d="M3.28003 2.21991C3.21137 2.14622 3.12857 2.08712 3.03657 2.04613C2.94457 2.00514 2.84526 1.98309 2.74455 1.98132C2.64385 1.97954 2.54382 1.99807 2.45043 2.03579C2.35705 2.07351 2.27221 2.12965 2.20099 2.20087C2.12977 2.27209 2.07363 2.35692 2.03591 2.45031C1.99819 2.5437 1.97966 2.64373 1.98144 2.74443C1.98322 2.84513 2.00526 2.94445 2.04625 3.03645C2.08724 3.12845 2.14634 3.21125 2.22003 3.27991L7.94403 9.00491H5.25003C4.82324 9.00491 4.40062 9.08897 4.00631 9.2523C3.612 9.41563 3.25372 9.65502 2.95193 9.95681C2.65014 10.2586 2.41075 10.6169 2.24742 11.0112C2.0841 11.4055 2.00003 11.8281 2.00003 12.2549V15.7469C2.00003 16.6089 2.34244 17.4355 2.95193 18.045C3.56143 18.6545 4.38808 18.9969 5.25003 18.9969H8.26203C8.70603 18.9969 9.13403 19.1669 9.45803 19.4699L14.395 24.0959C15.194 24.8449 16.5 24.2779 16.5 23.1839V17.5609L24.72 25.7809C24.8615 25.9175 25.051 25.993 25.2477 25.9912C25.4443 25.9894 25.6324 25.9104 25.7714 25.7713C25.9104 25.6322 25.9892 25.444 25.9908 25.2474C25.9924 25.0507 25.9167 24.8613 25.78 24.7199L3.28003 2.21991ZM10.622 7.43991L16.5 13.3179V4.81391C16.5 3.71991 15.193 3.15391 14.395 3.90191L10.622 7.43991ZM20.172 16.9899L21.309 18.1269C21.9291 16.8395 22.2507 15.4288 22.25 13.9999C22.2531 11.9453 21.5873 9.94552 20.353 8.30291C20.2939 8.22412 20.2199 8.15773 20.1352 8.10755C20.0504 8.05737 19.9566 8.02438 19.8591 8.01045C19.7616 7.99652 19.6623 8.00193 19.5669 8.02637C19.4715 8.05082 19.3818 8.09381 19.303 8.15291C19.2242 8.212 19.1579 8.28604 19.1077 8.37079C19.0575 8.45554 19.0245 8.54934 19.0106 8.64684C18.9966 8.74434 19.0021 8.84363 19.0265 8.93904C19.0509 9.03445 19.0939 9.12412 19.153 9.20291C20.1925 10.5859 20.7531 12.2698 20.75 13.9999C20.7506 15.0244 20.5544 16.0394 20.172 16.9899ZM22.975 19.7929L24.07 20.8889C25.3354 18.8137 26.0033 16.4295 26 13.9989C26 10.6479 24.754 7.58491 22.702 5.25191C22.638 5.17457 22.5592 5.11086 22.4701 5.06456C22.381 5.01826 22.2836 4.99031 22.1835 4.98237C22.0834 4.97443 21.9828 4.98666 21.8875 5.01833C21.7923 5.05 21.7043 5.10048 21.629 5.16676C21.5536 5.23305 21.4923 5.31379 21.4486 5.40421C21.405 5.49463 21.38 5.59288 21.3751 5.69314C21.3702 5.79341 21.3854 5.89364 21.4199 5.9879C21.4544 6.08217 21.5075 6.16854 21.576 6.24191C23.465 8.38432 24.505 11.1437 24.5 13.9999C24.503 16.0305 23.9775 18.027 22.975 19.7929Z" fill="white"/>
</svg>
