<svg width="14" height="14" viewBox="0 0 14 14" fill="none" xmlns="http://www.w3.org/2000/svg">
<path d="M2.26544 2.37656L2.31531 2.31531C2.38781 2.24297 2.48339 2.19836 2.5854 2.18925C2.68741 2.18013 2.78939 2.2071 2.87356 2.26544L2.93481 2.31531L7.00006 6.38144L11.0653 2.31531C11.1475 2.23316 11.2589 2.18701 11.3751 2.18701C11.4912 2.18701 11.6027 2.23316 11.6848 2.31531C11.767 2.39747 11.8131 2.50889 11.8131 2.62506C11.8131 2.74124 11.767 2.85266 11.6848 2.93481L7.61869 7.00006L11.6848 11.0653C11.7572 11.1378 11.8018 11.2334 11.8109 11.3354C11.82 11.4374 11.793 11.5394 11.7347 11.6236L11.6848 11.6848C11.6123 11.7572 11.5167 11.8018 11.4147 11.8109C11.3127 11.82 11.2107 11.793 11.1266 11.7347L11.0653 11.6848L7.00006 7.61869L2.93481 11.6848C2.85266 11.767 2.74124 11.8131 2.62506 11.8131C2.50889 11.8131 2.39747 11.767 2.31531 11.6848C2.23316 11.6027 2.18701 11.4912 2.18701 11.3751C2.18701 11.2589 2.23316 11.1475 2.31531 11.0653L6.38144 7.00006L2.31531 2.93481C2.24297 2.86232 2.19836 2.76674 2.18925 2.66472C2.18013 2.56271 2.2071 2.46074 2.26544 2.37656Z" fill="black"/>
</svg>
