<svg width="28" height="28" viewBox="0 0 28 28" fill="none" xmlns="http://www.w3.org/2000/svg">
<path d="M14.395 3.90205C15.193 3.15405 16.5 3.72005 16.5 4.81405V23.1841C16.5 24.2781 15.194 24.8441 14.395 24.0961L9.458 19.4701C9.13382 19.1663 8.70625 18.9972 8.262 18.9971H5.25C4.38805 18.9971 3.5614 18.6546 2.9519 18.0451C2.34241 17.4357 2 16.609 2 15.7471V12.2551C2 11.3931 2.34241 10.5664 2.9519 9.95695C3.5614 9.34746 4.38805 9.00505 5.25 9.00505H8.261C8.706 9.00505 9.134 8.83505 9.458 8.53205L14.395 3.90205Z" fill="white"/>
</svg>
