<svg width="14" height="14" viewBox="0 0 14 14" fill="none" xmlns="http://www.w3.org/2000/svg">
<path d="M7 2.1875C7 2.07147 6.95391 1.96019 6.87186 1.87814C6.78981 1.79609 6.67853 1.75 6.5625 1.75C6.44647 1.75 6.33519 1.79609 6.25314 1.87814C6.17109 1.96019 6.125 2.07147 6.125 2.1875V6.125H2.1875C2.07147 6.125 1.96019 6.17109 1.87814 6.25314C1.79609 6.33519 1.75 6.44647 1.75 6.5625C1.75 6.67853 1.79609 6.78981 1.87814 6.87186C1.96019 6.95391 2.07147 7 2.1875 7H6.125V10.9375C6.125 11.0535 6.17109 11.1648 6.25314 11.2469C6.33519 11.3289 6.44647 11.375 6.5625 11.375C6.67853 11.375 6.78981 11.3289 6.87186 11.2469C6.95391 11.1648 7 11.0535 7 10.9375V7H10.9375C11.0535 7 11.1648 6.95391 11.2469 6.87186C11.3289 6.78981 11.375 6.67853 11.375 6.5625C11.375 6.44647 11.3289 6.33519 11.2469 6.25314C11.1648 6.17109 11.0535 6.125 10.9375 6.125H7V2.1875Z" fill="black"/>
</svg>
