<svg width="20" height="20" viewBox="0 0 20 20" fill="none" xmlns="http://www.w3.org/2000/svg">
<path d="M17 4.25202C17 3.25202 15.884 2.65702 15.053 3.21402L6.554 8.92102C6.38429 9.03494 6.2451 9.18874 6.14863 9.36894C6.05216 9.54915 6.00136 9.75026 6.00067 9.95466C5.99997 10.1591 6.04942 10.3605 6.14467 10.5414C6.23992 10.7222 6.37806 10.877 6.547 10.992L15.047 16.785C15.2349 16.9128 15.454 16.9869 15.6808 16.9995C15.9076 17.0121 16.1336 16.9626 16.3344 16.8564C16.5353 16.7502 16.7033 16.5912 16.8206 16.3966C16.9379 16.2021 16.9999 15.9792 17 15.752V4.25202ZM3 3.50002C3 3.36741 3.05268 3.24023 3.14645 3.14647C3.24021 3.0527 3.36739 3.00002 3.5 3.00002C3.63261 3.00002 3.75979 3.0527 3.85355 3.14647C3.94732 3.24023 4 3.36741 4 3.50002V16.5C4 16.6326 3.94732 16.7598 3.85355 16.8536C3.75979 16.9473 3.63261 17 3.5 17C3.36739 17 3.24021 16.9473 3.14645 16.8536C3.05268 16.7598 3 16.6326 3 16.5V3.50002Z" fill="white"/>
</svg>
