<svg width="22" height="22" viewBox="0 0 22 22" fill="none" xmlns="http://www.w3.org/2000/svg">
<path d="M0 3C0 2.20435 0.316071 1.44129 0.87868 0.87868C1.44129 0.316071 2.20435 0 3 0H6.5C6.76522 0 7.01957 0.105357 7.20711 0.292893C7.39464 0.48043 7.5 0.734784 7.5 1C7.5 1.26522 7.39464 1.51957 7.20711 1.70711C7.01957 1.89464 6.76522 2 6.5 2H3C2.73478 2 2.48043 2.10536 2.29289 2.29289C2.10536 2.48043 2 2.73478 2 3V6.5C2 6.76522 1.89464 7.01957 1.70711 7.20711C1.51957 7.39464 1.26522 7.5 1 7.5C0.734784 7.5 0.48043 7.39464 0.292893 7.20711C0.105357 7.01957 0 6.76522 0 6.5V3ZM14.5 1C14.5 0.734784 14.6054 0.48043 14.7929 0.292893C14.9804 0.105357 15.2348 0 15.5 0H19C19.7956 0 20.5587 0.316071 21.1213 0.87868C21.6839 1.44129 22 2.20435 22 3V6.5C22 6.76522 21.8946 7.01957 21.7071 7.20711C21.5196 7.39464 21.2652 7.5 21 7.5C20.7348 7.5 20.4804 7.39464 20.2929 7.20711C20.1054 7.01957 20 6.76522 20 6.5V3C20 2.73478 19.8946 2.48043 19.7071 2.29289C19.5196 2.10536 19.2652 2 19 2H15.5C15.2348 2 14.9804 1.89464 14.7929 1.70711C14.6054 1.51957 14.5 1.26522 14.5 1ZM1 14.5C1.26522 14.5 1.51957 14.6054 1.70711 14.7929C1.89464 14.9804 2 15.2348 2 15.5V19C2 19.2652 2.10536 19.5196 2.29289 19.7071C2.48043 19.8946 2.73478 20 3 20H6.5C6.76522 20 7.01957 20.1054 7.20711 20.2929C7.39464 20.4804 7.5 20.7348 7.5 21C7.5 21.2652 7.39464 21.5196 7.20711 21.7071C7.01957 21.8946 6.76522 22 6.5 22H3C2.20435 22 1.44129 21.6839 0.87868 21.1213C0.316071 20.5587 0 19.7956 0 19V15.5C0 15.2348 0.105357 14.9804 0.292893 14.7929C0.48043 14.6054 0.734784 14.5 1 14.5ZM21 14.5C21.2652 14.5 21.5196 14.6054 21.7071 14.7929C21.8946 14.9804 22 15.2348 22 15.5V19C22 19.7956 21.6839 20.5587 21.1213 21.1213C20.5587 21.6839 19.7956 22 19 22H15.5C15.2348 22 14.9804 21.8946 14.7929 21.7071C14.6054 21.5196 14.5 21.2652 14.5 21C14.5 20.7348 14.6054 20.4804 14.7929 20.2929C14.9804 20.1054 15.2348 20 15.5 20H19C19.2652 20 19.5196 19.8946 19.7071 19.7071C19.8946 19.5196 20 19.2652 20 19V15.5C20 15.2348 20.1054 14.9804 20.2929 14.7929C20.4804 14.6054 20.7348 14.5 21 14.5Z" fill="black"/>
</svg>
