<svg width="11" height="2" viewBox="0 0 11 2" fill="none" xmlns="http://www.w3.org/2000/svg">
<path d="M6.17578 0.12501C6.17578 0.12501 5.85431 0.125002 5.73828 0.125002C5.62225 0.125002 5.30078 0.125 5.30078 0.125H1.36328C1.24725 0.125 1.13597 0.171095 1.05392 0.253142C0.971875 0.335189 0.925781 0.446469 0.925781 0.562501C0.925781 0.678533 0.971875 0.789813 1.05392 0.87186C1.13597 0.953907 1.24725 1 1.36328 1H5.30078C5.21873 0.917954 5.30078 1.11603 5.30078 1C5.18475 1 5.38283 1.08205 5.30078 1C5.21873 1.08205 5.41681 1 5.30078 1H10.1133C10.2293 1 10.3406 0.953907 10.4226 0.87186C10.5047 0.789813 10.5508 0.678533 10.5508 0.562501C10.5508 0.446469 10.5047 0.335189 10.4226 0.253142C10.3406 0.171095 10.2293 0.125 10.1133 0.125L6.17578 0.12501Z" fill="black"/>
</svg>
