<svg width="12" height="12" viewBox="0 0 12 12" fill="none" xmlns="http://www.w3.org/2000/svg">
<path d="M11.4319 5.92211L9.68735 4.54536C9.67275 4.53387 9.65522 4.52674 9.63675 4.52476C9.61828 4.52278 9.59964 4.52605 9.58294 4.53418C9.56625 4.54232 9.55218 4.55499 9.54236 4.57075C9.53253 4.58651 9.52734 4.60471 9.52739 4.62328V5.50785H6.49223V2.4727H7.37817C7.4602 2.4727 7.50668 2.377 7.4561 2.31274L6.07797 0.568207C6.06885 0.556402 6.05715 0.546844 6.04376 0.540268C6.03036 0.533693 6.01564 0.530273 6.00073 0.530273C5.98581 0.530273 5.97109 0.533693 5.9577 0.540268C5.94431 0.546844 5.9326 0.556402 5.92348 0.568207L4.54536 2.31274C4.53387 2.32733 4.52674 2.34487 4.52476 2.36333C4.52278 2.3818 4.52605 2.40045 4.53418 2.41714C4.54232 2.43384 4.55499 2.4479 4.57075 2.45773C4.58651 2.46756 4.60471 2.47274 4.62328 2.4727H5.50786V5.50785H2.4727V4.62192C2.4727 4.53989 2.377 4.4934 2.31274 4.54399L0.568207 5.92211C0.556402 5.93123 0.546844 5.94294 0.540268 5.95633C0.533693 5.96972 0.530273 5.98444 0.530273 5.99936C0.530273 6.01428 0.533693 6.029 0.540268 6.04239C0.546844 6.05578 0.556402 6.06748 0.568207 6.0766L2.31137 7.45473C2.37563 7.50532 2.47133 7.4602 2.47133 7.3768V6.49223H5.50649V9.52739H4.62055C4.53852 9.52739 4.49203 9.62309 4.54262 9.68735L5.92075 11.4305C5.96039 11.4811 6.03696 11.4811 6.07524 11.4305L7.45336 9.68735C7.50395 9.62309 7.45883 9.52739 7.37543 9.52739H6.49223V6.49223H9.52739V7.37817C9.52739 7.4602 9.62309 7.50668 9.68735 7.4561L11.4305 6.07797C11.4423 6.06872 11.4518 6.05695 11.4584 6.04352C11.465 6.03008 11.4685 6.01534 11.4686 6.00037C11.4688 5.9854 11.4655 5.9706 11.4592 5.95705C11.4528 5.94351 11.4435 5.93156 11.4319 5.92211Z" fill="black"/>
</svg>
