<svg width="11" height="11" viewBox="0 0 11 11" fill="none" xmlns="http://www.w3.org/2000/svg">
<path d="M6 1.1875C6 1.07147 5.95391 0.960188 5.87186 0.878141C5.78981 0.796094 5.67853 0.75 5.5625 0.75C5.44647 0.75 5.33519 0.796094 5.25314 0.878141C5.17109 0.960188 5.125 1.07147 5.125 1.1875V5.125H1.1875C1.07147 5.125 0.960188 5.17109 0.878141 5.25314C0.796094 5.33519 0.75 5.44647 0.75 5.5625C0.75 5.67853 0.796094 5.78981 0.878141 5.87186C0.960188 5.95391 1.07147 6 1.1875 6H5.125V9.9375C5.125 10.0535 5.17109 10.1648 5.25314 10.2469C5.33519 10.3289 5.44647 10.375 5.5625 10.375C5.67853 10.375 5.78981 10.3289 5.87186 10.2469C5.95391 10.1648 6 10.0535 6 9.9375V6H9.9375C10.0535 6 10.1648 5.95391 10.2469 5.87186C10.3289 5.78981 10.375 5.67853 10.375 5.5625C10.375 5.44647 10.3289 5.33519 10.2469 5.25314C10.1648 5.17109 10.0535 5.125 9.9375 5.125H6V1.1875Z" fill="black"/>
</svg>
