<svg width="22" height="12" viewBox="0 0 22 12" fill="none" xmlns="http://www.w3.org/2000/svg">
<path fill-rule="evenodd" clip-rule="evenodd" d="M0.606229 0.0797352C0.726977 0.0280382 0.856726 0.000635529 0.988066 -0.000907548C1.11941 -0.00245063 1.24976 0.0218962 1.37169 0.070742C1.49362 0.119588 1.60473 0.191976 1.69868 0.283771C1.79263 0.375567 1.86757 0.484971 1.91923 0.605735L1.00023 0.999735L1.92023 0.605735L1.92323 0.613735L1.94423 0.658735L2.03823 0.852735C2.12423 1.02474 2.25723 1.27674 2.43823 1.58174C2.91549 2.38351 3.4752 3.13325 4.10823 3.81874C4.29796 4.02286 4.49475 4.22031 4.69823 4.41074C6.18023 5.79974 8.25123 6.99974 11.0002 6.99974C12.102 7.00477 13.1947 6.80048 14.2202 6.39774C15.4472 5.91474 16.4742 5.18773 17.3162 4.39973C18.4423 3.33121 19.3679 2.06962 20.0492 0.674735L20.0762 0.616735L20.0812 0.605735C20.1882 0.365744 20.3853 0.177493 20.63 0.0816835C20.8746 -0.0141263 21.1472 -0.00979649 21.3887 0.093737C21.6301 0.19727 21.8212 0.391689 21.9205 0.634956C22.0198 0.878224 22.0193 1.15079 21.9192 1.39374L21.9172 1.39874L21.9132 1.40674L21.9022 1.43274L21.8622 1.51974C21.6401 1.98231 21.3927 2.43232 21.1212 2.86774C20.6214 3.67068 20.0486 4.42587 19.4102 5.12373L20.2072 5.92073C20.3949 6.10824 20.5003 6.36261 20.5004 6.62788C20.5005 6.89315 20.3952 7.14759 20.2077 7.33524C20.0202 7.52288 19.7659 7.62834 19.5006 7.62844C19.2353 7.62853 18.9809 7.52324 18.7932 7.33574L17.9532 6.49574C17.3621 6.97354 16.7269 7.39409 16.0562 7.75174L16.8382 8.95374C16.912 9.06376 16.9632 9.18734 16.9888 9.31731C17.0144 9.44728 17.0139 9.58104 16.9874 9.71083C16.9609 9.84062 16.9089 9.96385 16.8343 10.0734C16.7598 10.1829 16.6642 10.2765 16.5532 10.3487C16.4422 10.421 16.3179 10.4705 16.1876 10.4943C16.0573 10.5182 15.9236 10.5159 15.7942 10.4876C15.6647 10.4593 15.5422 10.4056 15.4338 10.3296C15.3253 10.2535 15.233 10.1567 15.1622 10.0447L14.1762 8.53074C13.4972 8.73874 12.7722 8.88573 12.0002 8.95473V10.4997C12.0002 10.765 11.8949 11.0193 11.7073 11.2068C11.5198 11.3944 11.2654 11.4997 11.0002 11.4997C10.735 11.4997 10.4807 11.3944 10.2931 11.2068C10.1056 11.0193 10.0002 10.765 10.0002 10.4997V8.95574C9.22523 8.88574 8.50023 8.73874 7.82323 8.53074L6.83823 10.0447C6.69033 10.2592 6.46457 10.4075 6.20898 10.4581C5.9534 10.5086 5.68818 10.4574 5.46977 10.3154C5.25136 10.1733 5.09701 9.95166 5.03958 9.69753C4.98214 9.44341 5.02614 9.1769 5.16223 8.95473L5.94423 7.75174C5.24423 7.38174 4.61223 6.95174 4.04723 6.49474L3.20723 7.33474C3.01863 7.51689 2.76602 7.61769 2.50383 7.61541C2.24163 7.61313 1.99082 7.50796 1.80541 7.32255C1.62 7.13715 1.51483 6.88633 1.51256 6.62414C1.51028 6.36194 1.61107 6.10934 1.79323 5.92073L2.59023 5.12373C1.88277 4.34991 1.25619 3.50587 0.720229 2.60473C0.506782 2.24475 0.309584 1.87538 0.129229 1.49774L0.0962292 1.42574L0.0862292 1.40474L0.0842292 1.39773L0.0832291 1.39574C0.0802291 1.39574 0.0802292 1.39374 1.00023 0.999735L0.0812292 1.39474C0.0293475 1.27399 0.00177323 1.14421 8.27469e-05 1.01281C-0.00160774 0.881403 0.0226187 0.750954 0.0713771 0.628919C0.120135 0.506884 0.19247 0.395656 0.284243 0.301594C0.376017 0.207533 0.485431 0.131483 0.606229 0.0797352Z" fill="black"/>
</svg>
