<svg width="22" height="18" viewBox="0 0 22 18" fill="none" xmlns="http://www.w3.org/2000/svg">
<path d="M8 1.46005C8.97004 1.15186 9.98218 0.996668 11 1.00005C15.182 1.00005 18.028 3.50005 19.725 5.70405C20.575 6.81005 21 7.36105 21 9.00005C21 10.6401 20.575 11.1911 19.725 12.2961C18.028 14.5001 15.182 17.0001 11 17.0001C6.818 17.0001 3.972 14.5001 2.275 12.2961C1.425 11.1921 1 10.6391 1 9.00005C1 7.36005 1.425 6.80905 2.275 5.70405C2.7935 5.02688 3.37074 4.39677 4 3.82105" stroke="black" stroke-width="1.5" stroke-linecap="round"/>
<path d="M14 9C14 9.79565 13.6839 10.5587 13.1213 11.1213C12.5587 11.6839 11.7956 12 11 12C10.2044 12 9.44129 11.6839 8.87868 11.1213C8.31607 10.5587 8 9.79565 8 9C8 8.20435 8.31607 7.44129 8.87868 6.87868C9.44129 6.31607 10.2044 6 11 6C11.7956 6 12.5587 6.31607 13.1213 6.87868C13.6839 7.44129 14 8.20435 14 9Z" stroke="black" stroke-width="1.5"/>
</svg>
