<svg width="24" height="25" viewBox="0 0 24 25" fill="none" xmlns="http://www.w3.org/2000/svg">
<path d="M1.5 12C1.5 6.201 6.201 1.5 12 1.5C17.799 1.5 22.5 6.201 22.5 12V14.5H19.75C19.5511 14.5 19.3603 14.579 19.2197 14.7197C19.079 14.8603 19 15.0511 19 15.25V23.25C19 23.664 19.336 24 19.75 24H21C21.7956 24 22.5587 23.6839 23.1213 23.1213C23.6839 22.5587 24 21.7956 24 21V12C24 5.373 18.627 0 12 0C5.373 0 0 5.373 0 12V21C0 21.7956 0.316071 22.5587 0.87868 23.1213C1.44129 23.6839 2.20435 24 3 24H4.25C4.44891 24 4.63968 23.921 4.78033 23.7803C4.92098 23.6397 5 23.4489 5 23.25V15.25C5 15.0511 4.92098 14.8603 4.78033 14.7197C4.63968 14.579 4.44891 14.5 4.25 14.5H1.5V12ZM12.75 11.75C12.75 11.5511 12.671 11.3603 12.5303 11.2197C12.3897 11.079 12.1989 11 12 11C11.8011 11 11.6103 11.079 11.4697 11.2197C11.329 11.3603 11.25 11.5511 11.25 11.75V24.25C11.25 24.4489 11.329 24.6397 11.4697 24.7803C11.6103 24.921 11.8011 25 12 25C12.1989 25 12.3897 24.921 12.5303 24.7803C12.671 24.6397 12.75 24.4489 12.75 24.25V11.75ZM8.25 14.25C8.44891 14.25 8.63968 14.329 8.78033 14.4697C8.92098 14.6103 9 14.8011 9 15V20.25C9 20.4489 8.92098 20.6397 8.78033 20.7803C8.63968 20.921 8.44891 21 8.25 21C8.05109 21 7.86032 20.921 7.71967 20.7803C7.57902 20.6397 7.5 20.4489 7.5 20.25V15C7.5 14.8011 7.57902 14.6103 7.71967 14.4697C7.86032 14.329 8.05109 14.25 8.25 14.25ZM16.5 15C16.5 14.8011 16.421 14.6103 16.2803 14.4697C16.1397 14.329 15.9489 14.25 15.75 14.25C15.5511 14.25 15.3603 14.329 15.2197 14.4697C15.079 14.6103 15 14.8011 15 15V20.25C15 20.4489 15.079 20.6397 15.2197 20.7803C15.3603 20.921 15.5511 21 15.75 21C15.9489 21 16.1397 20.921 16.2803 20.7803C16.421 20.6397 16.5 20.4489 16.5 20.25V15Z" fill="black"/>
</svg>
